<svg xmlns="http://www.w3.org/2000/svg" width="25.999" height="20.691" viewBox="0 0 25.999 20.691">
  <g id="home_icon" transform="translate(0.001 -46.994)">
    <g id="Group_1" data-name="Group 1" transform="translate(-0.001 46.994)">
      <path id="Path_1" data-name="Path 1" d="M74.987,120.939l-9.273,7.644a.219.219,0,0,1-.008.048.221.221,0,0,0-.008.048v7.741a1.047,1.047,0,0,0,1.032,1.032h6.192V131.26h4.129v6.193h6.192a1.048,1.048,0,0,0,1.032-1.033V128.68a.227.227,0,0,0-.016-.1Z" transform="translate(-61.987 -116.762)" fill="#fff" />
      <path id="Path_2" data-name="Path 2" d="M25.819,57.073l-3.531-2.935v-6.58a.5.5,0,0,0-.516-.516h-3.1a.5.5,0,0,0-.516.516V50.7l-3.935-3.29a2,2,0,0,0-2.451,0l-11.6,9.66A.468.468,0,0,0,0,57.42a.522.522,0,0,0,.113.379l1,1.193a.55.55,0,0,0,.339.177.6.6,0,0,0,.387-.113L13,49.752l11.159,9.305a.5.5,0,0,0,.339.112h.048a.551.551,0,0,0,.339-.177l1-1.193A.522.522,0,0,0,26,57.42.47.47,0,0,0,25.819,57.073Z" transform="translate(0.001 -46.994)" fill="#fff" />
    </g>
  </g>
</svg>
